{
 "cells": [
  {
   "cell_type": "code",
   "execution_count": 1,
   "metadata": {
    "collapsed": true
   },
   "outputs": [],
   "source": [
    "from IPython.display import Image\n",
    "from IPython.display import HTML"
   ]
  },
  {
   "cell_type": "code",
   "execution_count": 2,
   "metadata": {},
   "outputs": [
    {
     "name": "stdout",
     "output_type": "stream",
     "text": [
      "Input #0, mov,mp4,m4a,3gp,3g2,mj2, from 'inputs/bling.mp4':\n",
      "  Metadata:\n",
      "    major_brand     : mp42\n",
      "    minor_version   : 0\n",
      "    compatible_brands: isommp42\n",
      "    creation_time   : 2017-07-26 12:35:17\n",
      "  Duration: 00:04:55.57, start: 0.000000, bitrate: 392 kb/s\n",
      "    Stream #0:0(und): Video: h264 (Constrained Baseline) (avc1 / 0x31637661), yuv420p(tv, bt709), 640x360 [SAR 1:1 DAR 16:9], 293 kb/s, 23.98 fps, 23.98 tbr, 24k tbn, 47.95 tbc (default)\n",
      "    Metadata:\n",
      "      handler_name    : VideoHandler\n",
      "    Stream #0:1(eng): Audio: aac (LC) (mp4a / 0x6134706D), 44100 Hz, stereo, fltp, 95 kb/s (default)\n",
      "    Metadata:\n",
      "      creation_time   : 2017-07-26 12:35:18\n",
      "      handler_name    : IsoMedia File Produced by Google, 5-11-2011\n",
      "\u001b[1;34m[swscaler @ 0x7f892c006e00] \u001b[0m\u001b[0;33mdeprecated pixel format used, make sure you did set range correctly\n",
      "\u001b[0mOutput #0, image2, to 'inputs/drake/img_%04d.jpg':\n",
      "  Metadata:\n",
      "    major_brand     : mp42\n",
      "    minor_version   : 0\n",
      "    compatible_brands: isommp42\n",
      "    encoder         : Lavf56.25.101\n",
      "    Stream #0:0(und): Video: mjpeg, yuvj420p(pc), 640x360 [SAR 1:1 DAR 16:9], q=2-31, 200 kb/s, 24 fps, 24 tbn, 24 tbc (default)\n",
      "    Metadata:\n",
      "      handler_name    : VideoHandler\n",
      "      encoder         : Lavc56.26.100 mjpeg\n",
      "Stream mapping:\n",
      "  Stream #0:0 -> #0:0 (h264 (native) -> mjpeg (native))\n",
      "Press [q] to stop, [?] for help\n",
      "frame= 7092 fps=485 q=24.8 Lsize=N/A time=00:04:55.50 bitrate=N/A    \n",
      "video:44051kB audio:0kB subtitle:0kB other streams:0kB global headers:0kB muxing overhead: unknown\n"
     ]
    }
   ],
   "source": [
    "!mkdir inputs/drake\n",
    "!mkdir outputs/drake\n",
    "!mkdir outputs/drake/drake_comp\n",
    "command = \"ffmpeg -i inputs/bling.mp4 -vf fps=24 inputs/drake/img_%04d.jpg -hide_banner\"\n",
    "!{command}"
   ]
  },
  {
   "cell_type": "code",
   "execution_count": 3,
   "metadata": {
    "collapsed": true
   },
   "outputs": [],
   "source": [
    "!mkdir temp/drake\n",
    "!mkdir temp/drake/sketch_drake1\n",
    "!mkdir temp/drake/drake_comp\n",
    "!mkdir temp/drake/crop_drake\n",
    "!mkdir temp/drake/drake_alpha\n",
    "!mkdir temp/drake/drake_sketch\n",
    "!mkdir temp/drake/drake_dark\n",
    "!mkdir temp/drake/drake_light\n",
    "!mkdir temp/drake/drake_line\n",
    "!mkdir temp/drake/drake_norm\n",
    "!mkdir temp/drake/sketchcrop_drake"
   ]
  },
  {
   "cell_type": "code",
   "execution_count": 4,
   "metadata": {
    "collapsed": true
   },
   "outputs": [],
   "source": [
    "countNum = 0\n",
    "\n",
    "for i in range(1232, 1276):\n",
    "    firstdrake = \"inputs/drake/img_{:04d}.jpg\".format(i)\n",
    "    sketchdrake = \"temp/drake/sketch_drake1/img_{:04d}.jpg\".format(i)\n",
    "    cropdrake = \"temp/drake/crop_drake/img_{:04d}.jpg\".format(i)\n",
    "    finaldrake = \"outputs/drake/drake_comp/img_{:04d}.png\".format(i)\n",
    "    \n",
    "    countNum += 1\n",
    "    \n",
    "    x = 280 + (countNum*2)\n",
    "    y = 50 + (countNum*3)\n",
    "    \n",
    "    command = \"convert {} \\\n",
    "    -colorspace gray \\\n",
    "    -sigmoidal-contrast 4,0% \\\n",
    "    -level 20% \\\n",
    "    -sketch 0x10+160 \\\n",
    "    {}\".format(firstdrake, sketchdrake)\n",
    "    !{command}\n",
    "\n",
    "    command = \"convert {} -crop 280x170+{}+{} -bordercolor White -border 10x10 {}\".format(firstdrake, x, y, cropdrake)\n",
    "    !{command}\n",
    "\n",
    "    command = \"convert {} {} \\\n",
    "    -geometry +{}+{} \\\n",
    "    -composite \\\n",
    "    -resize 440x330 \\\n",
    "    {}\".format(sketchdrake, cropdrake, x, y, finaldrake)\n",
    "    !{command}"
   ]
  },
  {
   "cell_type": "code",
   "execution_count": 5,
   "metadata": {
    "collapsed": true
   },
   "outputs": [],
   "source": [
    "for i in range(1276, 1311):\n",
    "    firstdrake = \"inputs/drake/img_{:04d}.jpg\".format(i)\n",
    "    finaldrake = \"outputs/drake/drake_comp/img_{:04d}.png\".format(i)\n",
    "\n",
    "    command = \"convert {} \\\n",
    "    -colorspace gray \\\n",
    "    -sigmoidal-contrast 9,0% \\\n",
    "    -level 50% \\\n",
    "    -fuzz 10% \\\n",
    "    -edge 2 \\\n",
    "    -negate \\\n",
    "    -resize 440x330 \\\n",
    "    {}\".format(firstdrake, finaldrake)\n",
    "    !{command}"
   ]
  },
  {
   "cell_type": "code",
   "execution_count": 6,
   "metadata": {
    "collapsed": true
   },
   "outputs": [],
   "source": [
    "countNum = 0\n",
    "\n",
    "for i in range(1311, 1358):\n",
    "    countNum += 1\n",
    "    firstdrake = \"inputs/drake/img_{:04d}.jpg\".format(i)\n",
    "    finaldrake = \"outputs/drake/drake_comp/img_{:04d}.png\".format(i)\n",
    "    \n",
    "    if countNum <= 2:\n",
    "        command = \"convert {} \\\n",
    "        -colorspace gray \\\n",
    "        -sigmoidal-contrast 4,0% \\\n",
    "        -level 30% \\\n",
    "        -sketch 0x10+160 \\\n",
    "        -resize 440x330 \\\n",
    "        {}\".format(firstdrake, finaldrake)\n",
    "        !{command}\n",
    "    else:\n",
    "        command = \"convert {} \\\n",
    "        -colorspace gray \\\n",
    "        -sigmoidal-contrast 4,0% \\\n",
    "        -level 10% \\\n",
    "        -sketch 0x10+160 \\\n",
    "        -negate \\\n",
    "        -resize 440x330 \\\n",
    "        {}\".format(firstdrake, finaldrake)\n",
    "        !{command}\n",
    "    if countNum == 4:\n",
    "        countNum = 0"
   ]
  },
  {
   "cell_type": "code",
   "execution_count": 7,
   "metadata": {
    "collapsed": true
   },
   "outputs": [],
   "source": [
    "for i in range(1358, 1401):\n",
    "    firstdrake = \"inputs/drake/img_{:04d}.jpg\".format(i)\n",
    "    finaldrake = \"outputs/drake/drake_comp/img_{:04d}.png\".format(i)\n",
    "\n",
    "    command = \"convert {} \\\n",
    "    -colorspace gray \\\n",
    "    -sigmoidal-contrast 9,0% \\\n",
    "    -level 50% \\\n",
    "    -fuzz 10% \\\n",
    "    -edge 2 \\\n",
    "    -resize 440x330 \\\n",
    "    {}\".format(firstdrake, finaldrake)\n",
    "    !{command}"
   ]
  },
  {
   "cell_type": "code",
   "execution_count": 8,
   "metadata": {
    "collapsed": true
   },
   "outputs": [],
   "source": [
    "for i in range(1401, 1442):    \n",
    "    infile = \"inputs/drake/img_{:04d}.jpg\".format(i)\n",
    "    outfile = \"temp/drake/drake_sketch/img_{:04d}.jpg\".format(i)\n",
    "    alphafile = \"temp/drake/drake_alpha/img_{:04d}.jpg\".format(i)\n",
    "    compfile = \"outputs/drake/drake_comp/img_{:04d}.png\".format(i)\n",
    "    command = \"convert {} \\\n",
    "    -colorspace gray \\\n",
    "    -resize 440x330 \\\n",
    "    -sigmoidal-contrast 3,0% \\\n",
    "    -level 10% \\\n",
    "    -sketch 0x10+160 \\\n",
    "      {}\".format(infile, outfile)\n",
    "    !{command}\n",
    "    command2 = \"convert {} \\\n",
    "    -colorspace gray \\\n",
    "    -resize 440x330 \\\n",
    "    -sigmoidal-contrast 1,0% \\\n",
    "    -level 50% \\\n",
    "    -fuzz 10% \\\n",
    "    -transparent white \\\n",
    "    -alpha extract \\\n",
    "      {}\".format(infile, alphafile)\n",
    "    !{command2}\n",
    "    command3 = \"convert {} {} {} \\\n",
    "        -resize 440x330 \\\n",
    "        -composite \\\n",
    "        {}\".format(infile, outfile, alphafile, compfile)\n",
    "    !{command3}"
   ]
  },
  {
   "cell_type": "code",
   "execution_count": 9,
   "metadata": {
    "collapsed": true
   },
   "outputs": [],
   "source": [
    "countNum = 0\n",
    "\n",
    "for i in range(1442, 1464):\n",
    "    countNum += 1\n",
    "    firstdrake = \"inputs/drake/img_{:04d}.jpg\".format(i)\n",
    "    finaldrake = \"outputs/drake/drake_comp/img_{:04d}.png\".format(i)\n",
    "    \n",
    "    if countNum <= 2:\n",
    "        command = \"convert {} \\\n",
    "        -colorspace gray \\\n",
    "        -sigmoidal-contrast 9,0% \\\n",
    "        -level 50% \\\n",
    "        -fuzz 10% \\\n",
    "        -edge 2 \\\n",
    "        -resize 440x330 \\\n",
    "        {}\".format(firstdrake, finaldrake)\n",
    "        !{command}\n",
    "    else:\n",
    "        command = \"convert {} \\\n",
    "        -colorspace gray \\\n",
    "        -sigmoidal-contrast 9,0% \\\n",
    "        -level 50% \\\n",
    "        -fuzz 10% \\\n",
    "        -edge 2 \\\n",
    "        -negate \\\n",
    "        -resize 440x330 \\\n",
    "        {}\".format(firstdrake, finaldrake)\n",
    "        !{command}\n",
    "    if countNum == 4:\n",
    "        countNum = 0"
   ]
  },
  {
   "cell_type": "code",
   "execution_count": 10,
   "metadata": {
    "collapsed": true
   },
   "outputs": [],
   "source": [
    "for i in range(1464, 1504):\n",
    "    \n",
    "    infile = \"inputs/drake/img_{:04d}.jpg\".format(i)\n",
    "    outfile = \"temp/drake/drake_sketch/img_{:04d}.jpg\".format(i)\n",
    "    alphafile = \"temp/drake/drake_alpha/img_{:04d}.jpg\".format(i)\n",
    "    compfile = \"outputs/drake/drake_comp/img_{:04d}.png\".format(i)\n",
    "    command = \"convert {} \\\n",
    "    -colorspace gray \\\n",
    "    -resize 440x330 \\\n",
    "    -sigmoidal-contrast 3,0% \\\n",
    "    -level 10% \\\n",
    "    -sketch 0x10+160 \\\n",
    "      {}\".format(infile, outfile)\n",
    "    !{command}\n",
    "    command2 = \"convert {} \\\n",
    "    -colorspace gray \\\n",
    "    -resize 440x330 \\\n",
    "    -sigmoidal-contrast 1,0% \\\n",
    "    -level 25% \\\n",
    "    -fuzz 10% \\\n",
    "    -transparent white \\\n",
    "    -alpha extract \\\n",
    "      {}\".format(infile, alphafile)\n",
    "    !{command2}\n",
    "    command3 = \"convert {} {} {} \\\n",
    "        -resize 440x330 \\\n",
    "        -composite \\\n",
    "        {}\".format(infile, outfile, alphafile, compfile)\n",
    "    !{command3}"
   ]
  },
  {
   "cell_type": "code",
   "execution_count": 11,
   "metadata": {
    "collapsed": true
   },
   "outputs": [],
   "source": [
    "blend = 1\n",
    "\n",
    "for i in range(1504, 1610):\n",
    "    firstdrake = \"inputs/drake/img_{:04d}.jpg\".format(i)\n",
    "    finaldrake = \"outputs/drake/drake_comp/img_{:04d}.png\".format(i)\n",
    "    darkdrake = \"temp/drake/drake_dark/img_{:04d}.jpg\".format(i)\n",
    "    lightdrake = \"temp/drake/drake_light/img_{:04d}.jpg\".format(i)\n",
    "    \n",
    "    command = \"convert {} \\\n",
    "    -colorspace gray \\\n",
    "    -sigmoidal-contrast 9,0% \\\n",
    "    -level 20% \\\n",
    "    -fuzz 10% \\\n",
    "    -sketch 0x10+160 \\\n",
    "    -resize 440x330 \\\n",
    "    {}\".format(firstdrake, lightdrake)\n",
    "    !{command}\n",
    "    \n",
    "    command = \"convert {} \\\n",
    "    -colorspace gray \\\n",
    "    -sigmoidal-contrast 9,0% \\\n",
    "    -level 20% \\\n",
    "    -fuzz 10% \\\n",
    "    -sketch 0x10+160 \\\n",
    "    -negate \\\n",
    "    -resize 440x330 \\\n",
    "    {}\".format(firstdrake, darkdrake)\n",
    "    !{command}\n",
    "    \n",
    "    blend_amount = 2*blend\n",
    "    \n",
    "    command = \"composite \\\n",
    "    -blend {} \\\n",
    "    {} \\\n",
    "    {} \\\n",
    "    {}\".format(blend_amount, lightdrake, darkdrake, finaldrake)\n",
    "    !{command}\n",
    "    \n",
    "    blend += 1"
   ]
  },
  {
   "cell_type": "code",
   "execution_count": 12,
   "metadata": {
    "collapsed": true
   },
   "outputs": [],
   "source": [
    "countNum = 0\n",
    "\n",
    "for i in range(1610, 1696):\n",
    "    countNum += 1\n",
    "    firstdrake = \"inputs/drake/img_{:04d}.jpg\".format(i)\n",
    "    finaldrake = \"outputs/drake/drake_comp/img_{:04d}.png\".format(i)\n",
    "    \n",
    "    if countNum <= 2:\n",
    "        command = \"convert {} \\\n",
    "        -colorspace gray \\\n",
    "        -sigmoidal-contrast 9,0% \\\n",
    "        -level 50% \\\n",
    "        -fuzz 10% \\\n",
    "        -edge 2 \\\n",
    "        -resize 440x330 \\\n",
    "        {}\".format(firstdrake, finaldrake)\n",
    "        !{command}\n",
    "    else:\n",
    "        command = \"convert {} \\\n",
    "        -resize 440x330 \\\n",
    "        {}\".format(firstdrake, finaldrake)\n",
    "        !{command}\n",
    "    if countNum == 4:\n",
    "        countNum = 0"
   ]
  },
  {
   "cell_type": "code",
   "execution_count": 13,
   "metadata": {
    "collapsed": true
   },
   "outputs": [],
   "source": [
    "countNum = 0\n",
    "\n",
    "for i in range(1696, 1721):\n",
    "\n",
    "    firstdrake = \"inputs/drake/img_{:04d}.jpg\".format(i)\n",
    "    sketchcropdrake = \"temp/drake/sketchcrop_drake/img_{:04d}.jpg\".format(i)\n",
    "    normdrake = \"temp/drake/drake_norm/img_{:04d}.jpg\".format(i)\n",
    "    finaldrake = \"outputs/drake/drake_comp/img_{:04d}.png\".format(i)\n",
    "    \n",
    "    countNum += 1\n",
    "    \n",
    "    x = 80 + (countNum*6)\n",
    "    y = 30 + (countNum*5)\n",
    "    \n",
    "    command = \"convert {} \\\n",
    "    -colorspace gray \\\n",
    "    -sigmoidal-contrast 4,0% \\\n",
    "    -level 20% \\\n",
    "    -sketch 0x10+160 \\\n",
    "    -crop 300x220+{}+{} -bordercolor White -border 5x5 \\\n",
    "    {}\".format(firstdrake, x, y, sketchcropdrake)\n",
    "    !{command}\n",
    "    \n",
    "    command = \"convert {} \\\n",
    "    -resize 440x330 \\\n",
    "    {}\".format(firstdrake, normdrake)\n",
    "    !{command}\n",
    "\n",
    "    command = \"convert {} {} \\\n",
    "    -geometry +{}+{} \\\n",
    "    -composite \\\n",
    "    -resize 440x330 \\\n",
    "    {}\".format(normdrake, sketchcropdrake, x, y, finaldrake)\n",
    "    !{command}"
   ]
  },
  {
   "cell_type": "code",
   "execution_count": 14,
   "metadata": {
    "collapsed": true
   },
   "outputs": [],
   "source": [
    "for i in range(1721, 1846):\n",
    "    firstdrake = \"inputs/drake/img_{:04d}.jpg\".format(i)\n",
    "    finaldrake = \"outputs/drake/drake_comp/img_{:04d}.png\".format(i)\n",
    "\n",
    "    command = \"convert {} \\\n",
    "    -colorspace gray \\\n",
    "    -sigmoidal-contrast 4,0% \\\n",
    "    -level 25% \\\n",
    "    -fuzz 10% \\\n",
    "    -edge 2 \\\n",
    "    -negate \\\n",
    "    -resize 440x330 \\\n",
    "    {}\".format(firstdrake, finaldrake)\n",
    "    !{command}"
   ]
  },
  {
   "cell_type": "code",
   "execution_count": 15,
   "metadata": {
    "collapsed": true
   },
   "outputs": [],
   "source": [
    "blend = 1\n",
    "\n",
    "for i in range(1846, 1870):\n",
    "    firstdrake = \"inputs/drake/img_{:04d}.jpg\".format(i)\n",
    "    finaldrake = \"outputs/drake/drake_comp/img_{:04d}.png\".format(i)\n",
    "    linedrake = \"temp/drake/drake_line/img_{:04d}.jpg\".format(i)\n",
    "    normdrake = \"temp/drake/drake_norm/img_{:04d}.jpg\".format(i)\n",
    "\n",
    "    command = \"convert {} \\\n",
    "    -colorspace gray \\\n",
    "    -sigmoidal-contrast 4,0% \\\n",
    "    -level 25% \\\n",
    "    -fuzz 10% \\\n",
    "    -edge 2 \\\n",
    "    -resize 440x330 \\\n",
    "    {}\".format(firstdrake, linedrake)\n",
    "    !{command}\n",
    "    \n",
    "    blend_amount = 5*blend\n",
    "    \n",
    "    command = \"convert {} \\\n",
    "    -resize 440x330 \\\n",
    "    {}\".format(firstdrake, normdrake)\n",
    "    !{command}\n",
    "    \n",
    "    command = \"composite \\\n",
    "    -blend {} \\\n",
    "    {} \\\n",
    "    {} \\\n",
    "    {}\".format(blend_amount, normdrake, linedrake, finaldrake)\n",
    "    !{command}\n",
    "    \n",
    "    blend += 1"
   ]
  },
  {
   "cell_type": "code",
   "execution_count": 16,
   "metadata": {
    "collapsed": true
   },
   "outputs": [],
   "source": [
    "countNum = 0\n",
    "\n",
    "for i in range(1870, 1948):\n",
    "    \n",
    "    infile = \"inputs/drake/img_{:04d}.jpg\".format(i)\n",
    "    outfile = \"temp/drake/drake_sketch/img_{:04d}.jpg\".format(i)\n",
    "    alphafile = \"temp/drake/drake_alpha/img_{:04d}.jpg\".format(i)\n",
    "    compfile = \"outputs/drake/drake_comp/img_{:04d}.png\".format(i)\n",
    "    countNum += 1\n",
    "    \n",
    "    if countNum <= 2:\n",
    "        command = \"convert {} \\\n",
    "        -colorspace gray \\\n",
    "        -resize 440x330 \\\n",
    "        -sigmoidal-contrast 1,0% \\\n",
    "        -level 20% \\\n",
    "        -sketch 0x10+160 \\\n",
    "          {}\".format(infile, outfile)\n",
    "        !{command}\n",
    "        command2 = \"convert {} \\\n",
    "        -colorspace gray \\\n",
    "        -resize 440x330 \\\n",
    "        -sigmoidal-contrast 1,0% \\\n",
    "        -level 34% \\\n",
    "        -fuzz 10% \\\n",
    "        -transparent white \\\n",
    "        -alpha extract \\\n",
    "          {}\".format(infile, alphafile)\n",
    "        !{command2}\n",
    "        command3 = \"convert {} {} {} \\\n",
    "            -resize 440x330 \\\n",
    "            -composite \\\n",
    "            {}\".format(infile, outfile, alphafile, compfile)\n",
    "        !{command3}\n",
    "    \n",
    "    else:\n",
    "        command = \"convert {} \\\n",
    "        -resize 440x330 \\\n",
    "        {}\".format(infile, compfile)\n",
    "        !{command}\n",
    "    if countNum == 4:\n",
    "        countNum = 0"
   ]
  },
  {
   "cell_type": "code",
   "execution_count": 20,
   "metadata": {},
   "outputs": [
    {
     "name": "stdout",
     "output_type": "stream",
     "text": [
      "ffmpeg -start_number 1232 -r 24 -f image2 -i outputs/drake/drake_comp/img_%4d.png -i inputs/aha.mp3 -c:v libx264 -crf 25 -pix_fmt yuv420p -tune fastdecode -y -tune zerolatency -profile:v baseline movies/drakeseqcomp.mp4\n",
      "\n",
      "ffmpeg version 2.6.2 Copyright (c) 2000-2015 the FFmpeg developers\n",
      "  built with Apple LLVM version 6.1.0 (clang-602.0.49) (based on LLVM 3.6.0svn)\n",
      "  configuration: --prefix=/usr/local/Cellar/ffmpeg/2.6.2 --enable-shared --enable-pthreads --enable-gpl --enable-version3 --enable-hardcoded-tables --enable-avresample --cc=clang --host-cflags= --host-ldflags= --enable-libx264 --enable-libmp3lame --enable-libvo-aacenc --enable-libxvid --enable-vda\n",
      "  libavutil      54. 20.100 / 54. 20.100\n",
      "  libavcodec     56. 26.100 / 56. 26.100\n",
      "  libavformat    56. 25.101 / 56. 25.101\n",
      "  libavdevice    56.  4.100 / 56.  4.100\n",
      "  libavfilter     5. 11.102 /  5. 11.102\n",
      "  libavresample   2.  1.  0 /  2.  1.  0\n",
      "  libswscale      3.  1.101 /  3.  1.101\n",
      "  libswresample   1.  1.100 /  1.  1.100\n",
      "  libpostproc    53.  3.100 / 53.  3.100\n",
      "Input #0, image2, from 'outputs/drake/drake_comp/img_%4d.png':\n",
      "  Duration: 00:00:29.83, start: 0.000000, bitrate: N/A\n",
      "    Stream #0:0: Video: png, rgb24, 440x248, 24 fps, 24 tbr, 24 tbn, 24 tbc\n",
      "Input #1, mp3, from 'inputs/aha.mp3':\n",
      "  Metadata:\n",
      "    encoder         : Lavf57.19.100\n",
      "  Duration: 00:00:29.94, start: 0.025057, bitrate: 192 kb/s\n",
      "    Stream #1:0: Audio: mp3, 44100 Hz, stereo, s16p, 192 kb/s\n",
      "    Metadata:\n",
      "      encoder         : Lavc57.16\n",
      "\u001b[1;36m[libx264 @ 0x7ffa6c8ee800] \u001b[0musing cpu capabilities: MMX2 SSE2Fast SSSE3 SSE4.2 AVX FMA3 AVX2 LZCNT BMI2\n",
      "\u001b[1;36m[libx264 @ 0x7ffa6c8ee800] \u001b[0mprofile Constrained Baseline, level 2.1\n",
      "\u001b[1;36m[libx264 @ 0x7ffa6c8ee800] \u001b[0m264 - core 144 r2533 c8a773e - H.264/MPEG-4 AVC codec - Copyleft 2003-2015 - http://www.videolan.org/x264.html - options: cabac=0 ref=3 deblock=1:0:0 analyse=0x1:0x111 me=hex subme=7 psy=1 psy_rd=1.00:0.00 mixed_ref=1 me_range=16 chroma_me=1 trellis=1 8x8dct=0 cqm=0 deadzone=21,11 fast_pskip=1 chroma_qp_offset=-2 threads=4 lookahead_threads=4 sliced_threads=1 slices=4 nr=0 decimate=1 interlaced=0 bluray_compat=0 constrained_intra=0 bframes=0 weightp=0 keyint=250 keyint_min=24 scenecut=40 intra_refresh=0 rc=crf mbtree=0 crf=25.0 qcomp=0.60 qpmin=0 qpmax=69 qpstep=4 ip_ratio=1.40 aq=1:1.00\n",
      "Output #0, mp4, to 'movies/drakeseqcomp.mp4':\n",
      "  Metadata:\n",
      "    encoder         : Lavf56.25.101\n",
      "    Stream #0:0: Video: h264 (libx264) ([33][0][0][0] / 0x0021), yuv420p, 440x248, q=-1--1, 24 fps, 12288 tbn, 24 tbc\n",
      "    Metadata:\n",
      "      encoder         : Lavc56.26.100 libx264\n",
      "    Stream #0:1: Audio: aac (libvo_aacenc) ([64][0][0][0] / 0x0040), 44100 Hz, stereo, s16, 128 kb/s\n",
      "    Metadata:\n",
      "      encoder         : Lavc56.26.100 libvo_aacenc\n",
      "Stream mapping:\n",
      "  Stream #0:0 -> #0:0 (png (native) -> h264 (libx264))\n",
      "  Stream #1:0 -> #0:1 (mp3 (native) -> aac (libvo_aacenc))\n",
      "Press [q] to stop, [?] for help\n",
      "\u001b[0;35m[image2 @ 0x7ffa6c022a00] \u001b[0m\u001b[0;33mThread message queue blocking; consider raising the thread_queue_size option (current value: 8)\n",
      "\u001b[0mInput stream #0:0 frame changed from size:440x248 fmt:rgb24 to size:440x248 fmt:gray\n",
      "Input stream #0:0 frame changed from size:440x248 fmt:gray to size:440x248 fmt:rgb24p=0 drop=42    \n",
      "Input stream #0:0 frame changed from size:440x248 fmt:rgb24 to size:440x248 fmt:gray\n",
      "Input stream #0:0 frame changed from size:440x248 fmt:gray to size:440x248 fmt:rgb24\n",
      "Input stream #0:0 frame changed from size:440x248 fmt:rgb24 to size:440x248 fmt:gray\n",
      "Input stream #0:0 frame changed from size:440x248 fmt:gray to size:440x248 fmt:rgb24p=0 drop=248    \n",
      "Input stream #0:0 frame changed from size:440x248 fmt:rgb24 to size:440x248 fmt:gray\n",
      "Input stream #0:0 frame changed from size:440x248 fmt:gray to size:440x248 fmt:rgb24\n",
      "Input stream #0:0 frame changed from size:440x248 fmt:rgb24 to size:440x248 fmt:gray\n",
      "Input stream #0:0 frame changed from size:440x248 fmt:gray to size:440x248 fmt:rgb24\n",
      "Input stream #0:0 frame changed from size:440x248 fmt:rgb24 to size:440x248 fmt:gray\n",
      "Input stream #0:0 frame changed from size:440x248 fmt:gray to size:440x248 fmt:rgb24\n",
      "Input stream #0:0 frame changed from size:440x248 fmt:rgb24 to size:440x248 fmt:gray\n",
      "Input stream #0:0 frame changed from size:440x248 fmt:gray to size:440x248 fmt:rgb24\n",
      "Input stream #0:0 frame changed from size:440x248 fmt:rgb24 to size:440x248 fmt:gray\n",
      "Input stream #0:0 frame changed from size:440x248 fmt:gray to size:440x248 fmt:rgb24\n",
      "Input stream #0:0 frame changed from size:440x248 fmt:rgb24 to size:440x248 fmt:gray\n",
      "Input stream #0:0 frame changed from size:440x248 fmt:gray to size:440x248 fmt:rgb24\n",
      "Input stream #0:0 frame changed from size:440x248 fmt:rgb24 to size:440x248 fmt:gray\n",
      "Input stream #0:0 frame changed from size:440x248 fmt:gray to size:440x248 fmt:rgb24\n",
      "Input stream #0:0 frame changed from size:440x248 fmt:rgb24 to size:440x248 fmt:gray\n",
      "Input stream #0:0 frame changed from size:440x248 fmt:gray to size:440x248 fmt:rgb24\n",
      "Input stream #0:0 frame changed from size:440x248 fmt:rgb24 to size:440x248 fmt:gray\n",
      "Input stream #0:0 frame changed from size:440x248 fmt:gray to size:440x248 fmt:rgb24\n",
      "Input stream #0:0 frame changed from size:440x248 fmt:rgb24 to size:440x248 fmt:gray\n",
      "Input stream #0:0 frame changed from size:440x248 fmt:gray to size:440x248 fmt:rgb24\n",
      "Input stream #0:0 frame changed from size:440x248 fmt:rgb24 to size:440x248 fmt:gray\n",
      "Input stream #0:0 frame changed from size:440x248 fmt:gray to size:440x248 fmt:rgb24\n",
      "Input stream #0:0 frame changed from size:440x248 fmt:rgb24 to size:440x248 fmt:gray\n",
      "Input stream #0:0 frame changed from size:440x248 fmt:gray to size:440x248 fmt:rgb24\n",
      "Input stream #0:0 frame changed from size:440x248 fmt:rgb24 to size:440x248 fmt:gray\n",
      "Input stream #0:0 frame changed from size:440x248 fmt:gray to size:440x248 fmt:rgb24\n",
      "Input stream #0:0 frame changed from size:440x248 fmt:rgb24 to size:440x248 fmt:gray\n",
      "Input stream #0:0 frame changed from size:440x248 fmt:gray to size:440x248 fmt:rgb24\n",
      "Input stream #0:0 frame changed from size:440x248 fmt:rgb24 to size:440x248 fmt:gray\n",
      "Input stream #0:0 frame changed from size:440x248 fmt:gray to size:440x248 fmt:rgb24\n",
      "Input stream #0:0 frame changed from size:440x248 fmt:rgb24 to size:440x248 fmt:gray\n",
      "Input stream #0:0 frame changed from size:440x248 fmt:gray to size:440x248 fmt:rgb24\n",
      "Input stream #0:0 frame changed from size:440x248 fmt:rgb24 to size:440x248 fmt:gray\n",
      "Input stream #0:0 frame changed from size:440x248 fmt:gray to size:440x248 fmt:rgb24\n",
      "Input stream #0:0 frame changed from size:440x248 fmt:rgb24 to size:440x248 fmt:gray\n",
      "Input stream #0:0 frame changed from size:440x248 fmt:gray to size:440x248 fmt:rgb24\n",
      "Input stream #0:0 frame changed from size:440x248 fmt:rgb24 to size:440x248 fmt:gray\n",
      "Input stream #0:0 frame changed from size:440x248 fmt:gray to size:440x248 fmt:rgb24\n",
      "Input stream #0:0 frame changed from size:440x248 fmt:rgb24 to size:440x248 fmt:gray\n",
      "Input stream #0:0 frame changed from size:440x248 fmt:gray to size:440x248 fmt:rgb24\n",
      "Input stream #0:0 frame changed from size:440x248 fmt:rgb24 to size:440x248 fmt:gray\n",
      "Input stream #0:0 frame changed from size:440x248 fmt:gray to size:440x248 fmt:rgb24\n",
      "Input stream #0:0 frame changed from size:440x248 fmt:rgb24 to size:440x248 fmt:gray\n",
      "Input stream #0:0 frame changed from size:440x248 fmt:gray to size:440x248 fmt:rgb24\n",
      "frame=  127 fps= 60 q=27.0 Lsize=    1026kB time=00:00:29.91 bitrate= 281.0kbits/s dup=0 drop=589    \n",
      "video:549kB audio:468kB subtitle:0kB other streams:0kB global headers:0kB muxing overhead: 0.865234%\n",
      "\u001b[1;36m[libx264 @ 0x7ffa6c8ee800] \u001b[0mframe I:25    Avg QP:19.06  size:  6560\n",
      "\u001b[1;36m[libx264 @ 0x7ffa6c8ee800] \u001b[0mframe P:102   Avg QP:28.42  size:  3900\n",
      "\u001b[1;36m[libx264 @ 0x7ffa6c8ee800] \u001b[0mmb I  I16..4: 69.7%  0.0% 30.3%\n",
      "\u001b[1;36m[libx264 @ 0x7ffa6c8ee800] \u001b[0mmb P  I16..4:  5.1%  0.0%  7.0%  P16..4: 27.3% 10.4%  3.8%  0.0%  0.0%    skip:46.4%\n",
      "\u001b[1;36m[libx264 @ 0x7ffa6c8ee800] \u001b[0mcoded y,uvDC,uvAC intra: 48.9% 2.7% 1.3% inter: 12.9% 3.2% 0.3%\n",
      "\u001b[1;36m[libx264 @ 0x7ffa6c8ee800] \u001b[0mi16 v,h,dc,p: 51% 13% 31%  5%\n",
      "\u001b[1;36m[libx264 @ 0x7ffa6c8ee800] \u001b[0mi4 v,h,dc,ddl,ddr,vr,hd,vl,hu: 21% 11% 34%  5%  5%  5%  6%  4%  9%\n",
      "\u001b[1;36m[libx264 @ 0x7ffa6c8ee800] \u001b[0mi8c dc,h,v,p: 96%  3%  1%  0%\n",
      "\u001b[1;36m[libx264 @ 0x7ffa6c8ee800] \u001b[0mref P L0: 72.8% 14.8% 12.3%\n",
      "\u001b[1;36m[libx264 @ 0x7ffa6c8ee800] \u001b[0mkb/s:849.41\n"
     ]
    }
   ],
   "source": [
    "ffmpeg_sequence = \"outputs/drake/drake_comp/img_%4d.png\"\n",
    "movie_file = \"movies/drakeseqcomp.mp4\"\n",
    "command = \"ffmpeg -start_number 1232 -r 24 -f image2 -i {} -i inputs/aha.mp3 -c:v libx264 -crf 25 -pix_fmt yuv420p -tune fastdecode -y -tune zerolatency -profile:v baseline {}\\n\".format(ffmpeg_sequence, movie_file)\n",
    "print(command)\n",
    "!{command}"
   ]
  },
  {
   "cell_type": "code",
   "execution_count": null,
   "metadata": {
    "collapsed": true
   },
   "outputs": [],
   "source": []
  }
 ],
 "metadata": {
  "kernelspec": {
   "display_name": "Python 3",
   "language": "python",
   "name": "python3"
  },
  "language_info": {
   "codemirror_mode": {
    "name": "ipython",
    "version": 3
   },
   "file_extension": ".py",
   "mimetype": "text/x-python",
   "name": "python",
   "nbconvert_exporter": "python",
   "pygments_lexer": "ipython3",
   "version": "3.6.1"
  }
 },
 "nbformat": 4,
 "nbformat_minor": 2
}
